<?xml version="1.0" encoding="UTF-8"?>
<svg width="64" height="64" viewBox="0 0 64 64" xmlns="http://www.w3.org/2000/svg">
  <!-- Tray icon for Read Mode - Open Book -->

  <!-- Background circle -->
  <circle cx="32" cy="32" r="30" fill="#22c55e"/>

  <!-- Book body - left page -->
  <path d="M 12 16 L 12 48 Q 12 50 14 50 L 30 50 L 30 18 Q 30 16 28 16 L 14 16 Q 12 16 12 18 Z"
        fill="#ffffff"/>

  <!-- Book body - right page -->
  <path d="M 52 16 L 52 48 Q 52 50 50 50 L 34 50 L 34 18 Q 34 16 36 16 L 50 16 Q 52 16 52 18 Z"
        fill="#ffffff"/>

  <!-- Book spine -->
  <rect x="30" y="16" width="4" height="34" fill="#e5e7eb"/>

  <!-- Page lines - left -->
  <line x1="16" y1="24" x2="26" y2="24" stroke="#d1d5db" stroke-width="2"/>
  <line x1="16" y1="30" x2="26" y2="30" stroke="#d1d5db" stroke-width="2"/>
  <line x1="16" y1="36" x2="26" y2="36" stroke="#d1d5db" stroke-width="2"/>
  <line x1="16" y1="42" x2="26" y2="42" stroke="#d1d5db" stroke-width="2"/>

  <!-- Page lines - right -->
  <line x1="38" y1="24" x2="48" y2="24" stroke="#d1d5db" stroke-width="2"/>
  <line x1="38" y1="30" x2="48" y2="30" stroke="#d1d5db" stroke-width="2"/>
  <line x1="38" y1="36" x2="48" y2="36" stroke="#d1d5db" stroke-width="2"/>
  <line x1="38" y1="42" x2="48" y2="42" stroke="#d1d5db" stroke-width="2"/>
</svg>
